<?xml version="1.0" encoding="utf-8"?>
<!-- Generator: Adobe Illustrator 18.0.0, SVG Export Plug-In . SVG Version: 6.00 Build 0)  -->
<!DOCTYPE svg PUBLIC "-//W3C//DTD SVG 1.1//EN" "http://www.w3.org/Graphics/SVG/1.1/DTD/svg11.dtd">
<svg version="1.1" id="Layer_1" xmlns="http://www.w3.org/2000/svg" xmlns:xlink="http://www.w3.org/1999/xlink" x="0px" y="0px"
	 viewBox="0 0 288 59.1" enable-background="new 0 0 288 59.1" xml:space="preserve">
<g>
	<g>
		<path fill="#D6D2C4" d="M55.2,30.4c-2.5-2.5-5.6-3.8-8.9-3.9h-7.7c0,3.4,2.7,6.1,6.1,6.1h1.9v0c1.6,0.2,3.1,0.9,4.3,2.1
			c2.8,2.8,2.8,7.4,0,10.2c-2.8,2.8-7.4,2.8-10.2,0c-1.2-1.2-1.9-2.8-2.1-4.3h0l0-8v-6.1h-6.1v6.1h-6V19.9c0-4-1.1-7.2-3.9-10
			c-5.2-5.2-13.6-5.2-18.8,0c-5.2,5.2-5.2,13.6,0,18.8c2.5,2.5,5.6,3.8,8.9,3.9h7.1c-4,0-7.2,1.1-10,3.9c-5.2,5.2-5.2,13.6,0,18.8
			c5.2,5.2,13.6,5.2,18.8,0c2.5-2.5,3.8-5.6,3.9-8.9v-7.2c0,4,1.1,7.2,3.9,10c5.2,5.2,13.6,5.2,18.8,0C60.3,44,60.3,35.6,55.2,30.4z
			 M46.6,32.6L46.6,32.6L46.6,32.6L46.6,32.6z M12.5,26.5L12.5,26.5L12.5,26.5L12.5,26.5z M14.4,26.5h-1.9v0
			c-1.6-0.2-3.1-0.9-4.3-2.1c-2.8-2.8-2.8-7.4,0-10.2s7.4-2.8,10.2,0c1.2,1.2,1.9,2.8,2.1,4.3h0v8v6.1
			C20.5,29.2,17.7,26.5,14.4,26.5z M26.5,46.6L26.5,46.6L26.5,46.6L26.5,46.6z M26.5,44.7v1.9h0c-0.2,1.6-0.9,3.1-2.1,4.4
			c-2.8,2.8-7.4,2.8-10.2,0s-2.8-7.4,0-10.2c1.2-1.2,2.8-1.9,4.3-2.1v0h8h6.1C29.2,38.6,26.5,41.4,26.5,44.7z"/>
		<path fill="#F9423A" d="M49.2,3.9c-5.2-5.2-13.6-5.2-18.8,0c-2.5,2.5-3.8,5.6-3.9,8.9v7.7c3.4,0,6.1-2.7,6.1-6.1v-1.9h0
			c0.2-1.6,0.9-3.1,2.1-4.3c2.8-2.8,7.4-2.8,10.2,0c2.8,2.8,2.8,7.4,0,10.2c-1.2,1.2-2.8,1.9-4.3,2.1v0h-8h-6.1v6.1h12.7
			c4,0,7.2-1.1,10-3.9C54.3,17.5,54.3,9.1,49.2,3.9z M32.6,12.5L32.6,12.5L32.6,12.5L32.6,12.5z"/>
		
			<linearGradient id="SVGID_1_" gradientUnits="userSpaceOnUse" x1="5180.5649" y1="5827.3374" x2="5180.5649" y2="5836.0439" gradientTransform="matrix(1 0 0 1 -5157.0752 -5801.0527)">
			<stop  offset="0" style="stop-color:#34362F;stop-opacity:0"/>
			<stop  offset="0.1161" style="stop-color:#3D3F38;stop-opacity:0.1161"/>
			<stop  offset="0.3056" style="stop-color:#555650;stop-opacity:0.3056"/>
			<stop  offset="0.545" style="stop-color:#7B7D78;stop-opacity:0.545"/>
			<stop  offset="0.8218" style="stop-color:#B0B1AF;stop-opacity:0.8218"/>
			<stop  offset="1" style="stop-color:#D6D7D5"/>
		</linearGradient>
		<rect x="20.5" y="26.5" fill="url(#SVGID_1_)" width="6.1" height="6.1"/>
		
			<linearGradient id="SVGID_2_" gradientUnits="userSpaceOnUse" x1="5227.6855" y1="5907.8081" x2="5227.6855" y2="5916.5117" gradientTransform="matrix(0 -1 1 0 -5881.5757 5263.3027)">
			<stop  offset="0" style="stop-color:#34362F;stop-opacity:0"/>
			<stop  offset="0.1161" style="stop-color:#3D3F38;stop-opacity:0.1161"/>
			<stop  offset="0.3056" style="stop-color:#555650;stop-opacity:0.3056"/>
			<stop  offset="0.545" style="stop-color:#7B7D78;stop-opacity:0.545"/>
			<stop  offset="0.8218" style="stop-color:#B0B1AF;stop-opacity:0.8218"/>
			<stop  offset="1" style="stop-color:#D6D7D5"/>
		</linearGradient>
		<rect x="26.5" y="32.6" fill="url(#SVGID_2_)" width="6.1" height="6.1"/>
		
			<linearGradient id="SVGID_3_" gradientUnits="userSpaceOnUse" x1="5236.2725" y1="5963.1953" x2="5236.2725" y2="5971.8989" gradientTransform="matrix(0 1 -1 0 5996.0156 -5212.792)">
			<stop  offset="0" style="stop-color:#34362F;stop-opacity:0"/>
			<stop  offset="0.1161" style="stop-color:#3D3F38;stop-opacity:0.1161"/>
			<stop  offset="0.3056" style="stop-color:#555650;stop-opacity:0.3056"/>
			<stop  offset="0.545" style="stop-color:#7B7D78;stop-opacity:0.545"/>
			<stop  offset="0.8218" style="stop-color:#B0B1AF;stop-opacity:0.8218"/>
			<stop  offset="1" style="stop-color:#D6D7D5"/>
		</linearGradient>
		<rect x="26.5" y="20.4" fill="url(#SVGID_3_)" width="6.1" height="6.1"/>
		
			<linearGradient id="SVGID_4_" gradientUnits="userSpaceOnUse" x1="5157.8394" y1="5970.2808" x2="5157.8394" y2="5978.9873" gradientTransform="matrix(-1 0 0 -1 5193.3965 6003.0996)">
			<stop  offset="0" style="stop-color:#34362F;stop-opacity:0"/>
			<stop  offset="0.1161" style="stop-color:#3D3F38;stop-opacity:0.1161"/>
			<stop  offset="0.3056" style="stop-color:#555650;stop-opacity:0.3056"/>
			<stop  offset="0.545" style="stop-color:#7B7D78;stop-opacity:0.545"/>
			<stop  offset="0.8218" style="stop-color:#B0B1AF;stop-opacity:0.8218"/>
			<stop  offset="1" style="stop-color:#D6D7D5"/>
		</linearGradient>
		<rect x="32.5" y="26.5" fill="url(#SVGID_4_)" width="6.1" height="6.1"/>
	</g>
	<g>
		<path fill="#F9423A" d="M93.4,21.7l-4.7,3.9c-1.5-1.6-3-2.4-5.1-2.4c-3.4,0-6.1,2.6-6.1,6.6c0,4,2.7,6.6,6,6.7
			c2.1,0,3.9-0.9,5.3-2.4l4.6,4c-2.3,2.9-5.7,4.5-9.7,4.5c-7.7,0-12.8-5.4-12.8-12.7c0-7.3,5.2-12.7,12.9-12.7
			C87.8,17.1,91.2,18.8,93.4,21.7z"/>
		<path fill="#F9423A" d="M103.6,20.4c1.7-2.4,4.3-3.2,6.9-3.2c5.5,0,9.4,3.8,9.4,9.4l0,15.3h-6.5V28.7c0-3.5-1.7-5.4-4.7-5.4
			c-2.8,0-5.1,1.8-5.1,5.4v13.2l-6.5,0V6.1l6.6,0L103.6,20.4z"/>
		<path fill="#F9423A" d="M148.5,41.9h-6.4l0-2.7c-1.6,1.9-3.9,3.3-7.2,3.3c-6.6,0-11.7-5.5-11.6-12.7c0-7.2,5-12.7,11.7-12.7
			c3.3,0,5.6,1.4,7.2,3.3l0-2.7l6.3,0V41.9z M129.9,29.8c0,3.7,2.4,6.6,6.2,6.7c3.7,0,6.2-2.8,6.2-6.6c0-3.8-2.5-6.6-6.2-6.6
			C132.3,23.2,129.9,26.1,129.9,29.8z"/>
		<path fill="#F9423A" d="M171.8,23.6H163l0,8.9c0,3,1.6,4.1,3.6,4.1c1.5,0,3.2-0.8,4.5-1.6l1.8,5.5c-2,1.2-4.3,2.1-7.4,2.1
			c-6,0-9-3.4-9-9.6l0-9.4h-4.7v-5.8h4.7l0-5.1h6.5v5.1h6.8L171.8,23.6z"/>
		<path fill="#D6D2C4" d="M202.9,34.7l5.2-16.9l6.8,0l-8.2,24.1l-7.4,0l-5.3-16.3l-5.3,16.3l-7.4,0l-8.1-24.1l6.9,0l5.1,16.8
			l5.4-16.8h6.8L202.9,34.7z"/>
		<path fill="#D6D2C4" d="M241.2,29.8c0,7.3-5.6,12.7-13.1,12.7c-7.5,0-13-5.4-13-12.7c0-7.3,5.5-12.7,13-12.7
			C235.7,17.2,241.2,22.6,241.2,29.8z M221.8,29.8c0,3.9,2.7,6.6,6.4,6.7c3.7,0,6.4-2.7,6.4-6.6c0-3.9-2.7-6.6-6.4-6.7
			C224.5,23.2,221.8,25.9,221.8,29.8z"/>
		<path fill="#D6D2C4" d="M261,17.7l-1,6.4c-1.1-0.5-2.6-0.8-3.9-0.8c-3,0-5.1,1.8-5.1,5.4v13.1l-6.5,0V17.8l6.3,0l0,2.6
			c1.5-2.3,3.8-3.3,6.8-3.3C259,17.2,260.1,17.4,261,17.7z"/>
		<path fill="#D6D2C4" d="M270.9,26.4l2.3,0l6.8-8.6h8l-9.5,11.3l9.6,12.8l-8,0l-6.9-9.8l-2.2,0v9.8h-6.5V6.1h6.5V26.4z"/>
	</g>
</g>
</svg>
